<?xml version="1.0" encoding="utf-8"?>
<COLLADA xmlns="http://www.collada.org/2005/11/COLLADASchema" version="1.4.1">
 <asset><unit name="meter" meter="1"/><up_axis>Z_UP</up_axis></asset>
 <library_geometries><geometry id="room" name="room"><mesh>
  <source id="room-pos"><float_array id="room-pos-a" count="246">0.00000 0.00000 0.00000 3.94400 0.00000 0.00000 3.94400 3.03000 0.00000 0.45800 3.03000 0.00000 0.45800 2.96000 0.00000 0.00000 2.96000 0.00000 0.00000 0.00000 0.00000 0.12000 0.00000 0.00000 0.12000 0.00000 2.05100 0.00000 0.00000 2.05100 0.00000 0.00000 2.05100 0.12000 0.00000 2.05100 0.12000 0.00000 2.67000 0.00000 0.00000 2.67000 0.12000 0.00000 2.05100 1.01000 0.00000 2.05100 1.01000 0.00000 2.67000 0.12000 0.00000 2.67000 1.01000 0.00000 0.00000 3.94400 0.00000 0.00000 3.94400 0.00000 2.05100 1.01000 0.00000 2.05100 1.01000 0.00000 2.05100 3.94400 0.00000 2.05100 3.94400 0.00000 2.67000 1.01000 0.00000 2.67000 0.12000 0.00000 2.05100 1.01000 0.00000 2.05100 1.01000 0.00000 2.05100 0.12000 0.00000 2.05100 3.94400 0.00000 0.00000 3.94400 1.54900 0.00000 3.94400 1.54900 2.00600 3.94400 0.00000 2.00600 3.94400 0.00000 2.00600 3.94400 1.54900 2.00600 3.94400 1.54900 2.67000 3.94400 0.00000 2.67000 3.94400 1.54900 2.00600 3.94400 2.23900 2.00600 3.94400 2.23900 2.67000 3.94400 1.54900 2.67000 3.94400 2.23900 0.00000 3.94400 3.03000 0.00000 3.94400 3.03000 2.00600 3.94400 2.23900 2.00600 3.94400 2.23900 2.00600 3.94400 3.03000 2.00600 3.94400 3.03000 2.67000 3.94400 2.23900 2.67000 3.94400 1.54900 2.00600 3.94400 2.23900 2.00600 3.94400 2.23900 2.00600 3.94400 1.54900 2.00600 3.94400 3.03000 0.00000 0.45800 3.03000 0.00000 0.45800 3.03000 2.67000 3.94400 3.03000 2.67000 0.00000 2.96000 0.00000 0.00000 0.00000 0.00000 0.00000 0.00000 2.67000 0.00000 2.96000 2.67000 0.00000 2.96000 2.35000 0.00000 0.00000 2.35000 0.13500 0.00000 2.35000 0.13500 2.96000 2.35000 0.00000 2.96000 2.35000 0.00000 0.00000 2.35000 0.00000 0.00000 2.67000 0.00000 2.96000 2.67000 0.00000 0.00000 2.35000 0.13500 0.00000 2.35000 0.13500 0.00000 2.67000 0.00000 0.00000 2.67000 0.13500 0.00000 2.35000 0.13500 2.96000 2.35000 0.13500 2.96000 2.67000 0.13500 0.00000 2.67000 0.13500 2.96000 2.35000 0.00000 2.96000 2.35000 0.00000 2.96000 2.67000 0.13500 2.96000 2.67000</float_array>
   <technique_common><accessor source="#room-pos-a" count="82" stride="3">
    <param name="X" type="float"/><param name="Y" type="float"/><param name="Z" type="float"/>
   </accessor></technique_common></source>
  <vertices id="room-vtx"><input semantic="POSITION" source="#room-pos"/></vertices>
  <triangles count="42"><input semantic="VERTEX" source="#room-vtx" offset="0"/>
   <p>0 1 2 0 2 3 0 3 4 0 4 5 6 7 8 6 8 9 10 11 12 10 12 13 14 15 16 14 16 17 18 19 20 18 20 21 22 23 24 22 24 25 26 27 28 26 28 29 30 31 32 30 32 33 34 35 36 34 36 37 38 39 40 38 40 41 42 43 44 42 44 45 46 47 48 46 48 49 50 51 52 50 52 53 54 55 56 54 56 57 58 59 60 58 60 61 62 63 64 62 64 65 66 67 68 66 68 69 70 71 72 70 72 73 74 75 76 74 76 77 78 79 80 78 80 81</p></triangles>
 </mesh></geometry></library_geometries>
 <library_visual_scenes><visual_scene id="s" name="s"><node id="room-n" name="room">
  <instance_geometry url="#room"/></node></visual_scene></library_visual_scenes>
 <scene><instance_visual_scene url="#s"/></scene>
</COLLADA>
